#!Matlab matrix to amc conversion
:FULLY-SPECIFIED
:DEGREES
16
root 9.192140 16.357400 -29.724600 1.383030 1.634016 -0.067752
lowerback 6.351315 -0.288207 3.174067
upperback 1.507989 -0.128511 1.569001
thorax -2.003073 -0.081596 -0.105343
lowerneck -10.752507 2.300095 -0.416183
upperneck 9.553906 3.377759 -1.868495
head 5.163776 1.544235 -0.396094
rclavicle -0.000000 0.000000
rhumerus -28.660548 -5.912795 -84.752605
rradius 24.203637
rwrist -8.583090
rhand -19.984963 14.163818
rfingers 7.125020
rthumb 6.355070 -15.638607
lclavicle -0.000000 0.000000
lhumerus -42.427493 24.900835 72.916577
lradius 18.794637
lwrist 5.901708
lhand -19.133318 23.673820
lfingers 7.125020
lthumb 7.169712 53.324665
rfemur -6.967223 7.417575 29.296949
rtibia 31.078589
rfoot -19.775629 -9.902597
rtoes 0.860773
lfemur -20.650968 3.210890 -18.573601
ltibia 67.437980
lfoot -6.338135 12.593869
ltoes -11.881308
17
root 9.191770 16.245600 -29.440800 1.360399 1.634016 -0.333172
lowerback 6.391808 -0.081266 3.461694
upperback 1.569497 0.172836 1.404912
thorax -1.954321 0.069887 -0.468180
lowerneck -10.848853 2.314267 -0.174631
upperneck 8.837179 3.376008 -2.378466
head 4.964035 1.535974 -0.599756
rclavicle -0.000000 0.000000
rhumerus -25.217527 -1.879721 -84.762700
rradius 28.426086
rwrist -10.449326
rhand -20.364411 14.893045
rfingers 7.125020
rthumb 5.986879 -14.910848
lclavicle -0.000000 0.000000
lhumerus -44.715429 25.615799 71.561072
lradius 18.717912
lwrist 6.024471
lhand -18.807221 23.510981
lfingers 7.125020
lthumb 7.483942 53.164973
rfemur -3.227109 7.078229 29.072731
rtibia 27.417983
rfoot -19.587535 -8.663623
rtoes 0.360025
lfemur -22.951167 1.390603 -17.895590
ltibia 59.090807
lfoot -8.283776 13.122923
ltoes -12.708299
18
root 9.208550 16.156600 -29.151500 1.355456 1.634016 -0.422694
lowerback 6.430930 0.096016 3.671976
upperback 1.625470 0.417765 1.266637
thorax -1.908949 0.193547 -0.771761
lowerneck -10.938883 2.321390 0.018833
upperneck 8.143625 3.365632 -2.777198
head 4.772700 1.524451 -0.755594
rclavicle -0.000000 0.000000
rhumerus -22.091765 1.630455 -84.710169
rradius 31.942497
rwrist -12.043289
rhand -20.726113 15.375898
rfingers 7.125020
rthumb 5.635888 -14.443717
lclavicle -0.000000 0.000000
lhumerus -46.739861 26.254912 70.321197
lradius 18.683351
lwrist 6.134585
lhand -18.477045 23.367856
lfingers 7.125020
lthumb 7.802050 53.023551
rfemur 0.285853 6.761793 28.901842
rtibia 24.834803
rfoot -19.365653 -7.491928
rtoes -0.040886
lfemur -24.711084 -0.125479 -17.311653
ltibia 51.777597
lfoot -9.581657 13.513475
ltoes -13.121561
19
root 9.222000 16.080900 -28.855000 1.366353 1.634016 -0.462740
lowerback 6.469405 0.259117 3.860623
upperback 1.677674 0.638940 1.147165
thorax -1.865594 0.305106 -1.040737
lowerneck -11.027685 2.321756 0.184945
upperneck 7.466688 3.346050 -3.120046
head 4.587606 1.509172 -0.888041
rclavicle -0.000000 0.000000
rhumerus -19.144061 4.823493 -84.592767
rradius 35.126602
rwrist -13.475322
rhand -21.075752 15.737253
rfingers 7.125020
rthumb 5.296592 -14.101235
lclavicle -0.000000 0.000000
lhumerus -48.606740 26.839017 69.160000
lradius 18.689093
lwrist 6.238736
lhand -18.138725 23.241729
lfingers 7.125020
lthumb 8.127946 52.897780
rfemur 3.695163 6.457364 28.765064
rtibia 22.690653
rfoot -19.076857 -6.360543
rtoes -0.417982
lfemur -26.169980 -1.510405 -16.745466
ltibia 44.879606
lfoot -10.585994 13.876759
ltoes -13.389322
20
root 9.232280 16.013400 -28.551200 1.397163 1.634016 -0.509863
lowerback 6.507948 0.422277 4.077616
upperback 1.727757 0.865858 1.040438
thorax -1.822954 0.418749 -1.296946
lowerneck -11.120278 2.315379 0.341512
upperneck 6.799967 3.316165 -3.454606
head 4.406656 1.489485 -1.017862
rclavicle -0.000000 0.000000
rhumerus -16.243144 7.886563 -84.405474
rradius 38.316812
rwrist -14.844553
rhand -21.418821 16.070562
rfingers 7.125020
rthumb 4.963671 -13.783703
lclavicle -0.000000 0.000000
lhumerus -50.413772 27.387164 68.042877
lradius 18.735448
lwrist 6.343245
lhand -17.788097 23.130204
lfingers 7.125020
lthumb 8.465636 52.785331
rfemur 7.120674 6.154453 28.647016
rtibia 20.455641
rfoot -18.678033 -5.243426
rtoes -0.842771
lfemur -27.526195 -2.922257 -16.123027
ltibia 37.813219
lfoot -11.570888 14.316247
ltoes -13.685373
21
root 9.239730 15.970900 -28.241000 1.459410 1.634016 -0.630609
lowerback 6.547272 0.599742 4.380445
upperback 1.777301 1.128782 0.941044
thorax -1.779748 0.548927 -1.561192
lowerneck -11.221897 2.301999 0.505312
upperneck 6.137161 3.274303 -3.827324
head 4.227804 1.464551 -1.165412
rclavicle -0.000000 0.000000
rhumerus -13.259828 10.999216 -84.140285
rradius 41.852191
rwrist -16.245767
rhand -21.760709 16.462025
rfingers 7.125020
rthumb 4.631903 -13.398689
lclavicle -0.000000 0.000000
lhumerus -52.255529 27.917229 66.936536
lradius 18.824909
lwrist 6.454459
lhand -17.420845 23.031166
lfingers 7.125020
lthumb 8.819270 52.684123
rfemur 10.682812 5.842625 28.534421
rtibia 17.577416
rfoot -18.109638 -4.114864
rtoes -1.395801
lfemur -28.964106 -4.522188 -15.362981
ltibia 29.980574
lfoot -12.805133 14.957110
ltoes -14.201865
22
root 9.241850 15.946000 -27.925100 1.702825 1.634016 0.035364
lowerback 6.259539 0.778135 4.627914
upperback 1.769495 1.381604 0.875054
thorax -1.619175 0.675637 -1.692646
lowerneck -11.139817 2.196995 0.572956
upperneck 5.546676 3.081335 -3.879765
head 4.010417 1.380417 -1.196575
rclavicle -0.000000 0.000000
rhumerus -12.595347 11.077069 -83.748339
rradius 43.783237
rwrist -16.299916
rhand -21.963739 16.627240
rfingers 7.125020
rthumb 4.435970 -13.235860
lclavicle -0.000000 0.000000
lhumerus -51.906243 28.150422 66.805230
lradius 18.722175
lwrist 5.823240
lhand -17.409720 23.253722
lfingers 7.125020
lthumb 8.826392 52.920805
rfemur 14.188630 6.108296 28.339672
rtibia 14.491867
rfoot -16.019591 -4.036822
rtoes -5.932580
lfemur -28.540473 -4.641473 -15.183937
ltibia 27.877208
lfoot -11.527018 15.340817
ltoes -15.565280
23
root 9.242890 15.925900 -27.604900 1.849637 1.634016 0.410559
lowerback 5.971719 0.936399 4.741474
upperback 1.761402 1.577048 0.803751
thorax -1.460626 0.775742 -1.810426
lowerneck -11.056655 2.095536 0.633993
upperneck 4.954256 2.896124 -3.913248
head 3.791963 1.299629 -1.217927
rclavicle -0.000000 0.000000
rhumerus -11.956922 11.161256 -83.389468
rradius 45.599383
rwrist -16.354180
rhand -22.169759 16.781338
rfingers 7.125020
rthumb 4.237017 -13.086176
lclavicle -0.000000 0.000000
lhumerus -51.559930 28.383432 66.675815
lradius 18.595532
lwrist 5.234543
lhand -17.417696 23.461651
lfingers 7.125020
lthumb 8.815089 53.143506
rfemur 17.409776 6.360963 28.132633
rtibia 12.656724
rfoot -14.454558 -3.959353
rtoes -10.086288
lfemur -28.177052 -4.540155 -15.215140
ltibia 27.265237
lfoot -10.291505 15.399407
ltoes -15.966010
24
root 9.243090 15.943100 -27.273700 1.939503 1.634016 0.803201
lowerback 5.679121 1.086748 4.771799
upperback 1.752742 1.746268 0.723414
thorax -1.299970 0.863871 -1.924549
lowerneck -10.969391 1.995570 0.690574
upperneck 4.353474 2.713586 -3.929975
head 3.569868 1.220299 -1.230843
rclavicle -0.000000 0.000000
rhumerus -11.330145 11.253435 -83.051396
rradius 47.395453
rwrist -16.410165
rhand -22.381721 16.930273
rfingers 7.125020
rthumb 4.032193 -12.943260
lclavicle -0.000000 0.000000
lhumerus -51.204790 28.619853 66.546559
lradius 18.440904
lwrist 4.655883
lhand -17.444915 23.657842
lfingers 7.125020
lthumb 8.785159 53.355273
rfemur 20.607675 6.608203 27.887694
rtibia 11.371845
rfoot -13.024523 -3.880788
rtoes -14.260141
lfemur -27.842862 -4.183823 -15.462487
ltibia 27.812324
lfoot -8.807713 15.165853
ltoes -15.565507
25
root 9.241190 15.944900 -26.946700 1.553632 1.634016 0.216806
lowerback 5.493390 1.116145 3.666749
upperback 1.629560 1.702314 0.437278
thorax -1.344035 0.845241 -1.650166
lowerneck -10.948107 1.801348 0.281652
upperneck 4.582715 2.483738 -3.568907
head 3.629986 1.117982 -1.062289
rclavicle -0.000000 0.000000
rhumerus -13.367480 10.516731 -83.574542
rradius 46.536831
rwrist -16.042564
rhand -22.394790 17.608455
rfingers 7.125020
rthumb 4.018892 -12.262197
lclavicle -0.000000 0.000000
lhumerus -48.578863 26.916374 68.797907
lradius 19.542660
lwrist 6.171718
lhand -17.659259 23.618029
lfingers 7.125020
lthumb 8.582099 53.337057
rfemur 17.367646 6.645247 26.118395
rtibia 20.841262
rfoot -6.684861 -3.862896
rtoes -19.336114
lfemur -26.356207 -3.777909 -17.656898
ltibia 30.266958
lfoot -8.313578 13.745666
ltoes -10.723268
26
root 9.242210 15.966300 -26.610400 1.289410 1.634016 0.046632
lowerback 5.315760 1.147981 2.738789
upperback 1.509873 1.681442 0.166034
thorax -1.392133 0.837155 -1.403086
lowerneck -10.931118 1.615597 -0.084519
upperneck 4.821183 2.268041 -3.257515
head 3.694491 1.020519 -0.924800
rclavicle -0.000000 0.000000
rhumerus -15.348439 9.803328 -84.062903
rradius 45.643196
rwrist -15.674491
rhand -22.391224 18.184300
rfingers 7.125020
rthumb 4.021456 -11.689638
lclavicle -0.000000 0.000000
lhumerus -46.316747 25.305555 70.867860
lradius 20.579636
lwrist 7.357025
lhand -17.848426 23.583902
lfingers 7.125020
lthumb 8.402964 53.323536
rfemur 14.468733 6.690834 24.543006
rtibia 29.469786
rfoot -2.152926 -3.876155
rtoes -23.384752
lfemur -24.963259 -3.472052 -19.638884
ltibia 32.042454
lfoot -8.111447 12.550603
ltoes -7.096290
27
root 9.248620 16.002100 -26.265200 1.074831 1.634016 -0.012737
lowerback 5.143198 1.187912 1.873958
upperback 1.389207 1.679587 -0.100067
thorax -1.445650 0.837928 -1.163564
lowerneck -10.917675 1.434675 -0.432303
upperneck 5.071522 2.060831 -2.963791
head 3.764184 0.925969 -0.799081
rclavicle -0.000000 0.000000
rhumerus -17.325438 9.087560 -84.541634
rradius 44.668746
rwrist -15.290779
rhand -22.370961 18.712475
rfingers 7.125020
rthumb 4.039931 -11.167150
lclavicle -0.000000 0.000000
lhumerus -44.177800 23.689299 72.890776
lradius 21.656989
lwrist 8.513592
lhand -18.018868 23.554697
lfingers 7.125020
lthumb 8.241663 53.314403
rfemur 11.572277 6.747006 23.037711
rtibia 37.847677
rfoot 1.908381 -3.921117
rtoes -26.955421
lfemur -23.585959 -3.218458 -21.534312
ltibia 33.480508
lfoot -8.154720 11.476907
ltoes -4.048882
28
root 9.251840 16.054000 -25.912300 0.851422 1.634016 -0.067850
lowerback 4.972755 1.243035 0.966046
upperback 1.263054 1.696390 -0.370592
thorax -1.506127 0.847721 -0.912459
lowerneck -10.907185 1.255032 -0.784840
upperneck 5.336509 1.856669 -2.657542
head 3.839930 0.832448 -0.667491
rclavicle -0.000000 0.000000
rhumerus -19.350786 8.343680 -85.035396
rradius 43.563542
rwrist -14.875620
rhand -22.333640 19.243121
rfingers 7.125020
rthumb 4.074645 -10.641407
lclavicle -0.000000 0.000000
lhumerus -41.934482 21.969173 74.997959
lradius 22.883974
lwrist 9.935891
lhand -18.176395 23.529762
lfingers 7.125020
lthumb 8.092714 53.309451
rfemur 8.339905 6.816279 21.484206
rtibia 46.548049
rfoot 6.697309 -3.999659
rtoes -30.532632
lfemur -22.147126 -2.977500 -23.463549
ltibia 34.857877
lfoot -8.453372 10.431363
ltoes -1.046936
